HIERARCHY
ROOT mixamorig:Hips
{
	OFFSET 0.000000 102.625267 -0.521241
	CHANNELS 6 Xposition Yposition Zposition Xrotation Yrotation Zrotation
	JOINT mixamorig:Spine
	{
		OFFSET 0.000000 5.645721 -0.031929
		CHANNELS 3 Xrotation Yrotation Zrotation
		JOINT mixamorig:Spine1
		{
			OFFSET 0.000000 6.586685 -0.037251
			CHANNELS 3 Xrotation Yrotation Zrotation
			JOINT mixamorig:Spine2
			{
				OFFSET 0.000000 7.527618 -0.042572
				CHANNELS 3 Xrotation Yrotation Zrotation
				JOINT mixamorig:Neck
				{
					OFFSET 0.000000 8.468590 -0.047894
					CHANNELS 3 Xrotation Yrotation Zrotation
					JOINT mixamorig:Head
					{
						OFFSET 0.000000 5.998901 -1.158958
						CHANNELS 3 Xrotation Yrotation Zrotation
						JOINT mixamorig:HeadTop_End
						{
							OFFSET 0.000000 21.748810 -4.201760
							CHANNELS 3 Xrotation Yrotation Zrotation
							End Site
							{
								OFFSET 0.000000 22.150970 0.000000
							}
						}
					}
				}
				JOINT mixamorig:LeftShoulder
				{
					OFFSET 3.414614 7.343132 -0.058928
					CHANNELS 3 Xrotation Yrotation Zrotation
					JOINT mixamorig:LeftArm
					{
						OFFSET 6.829548 -2.246910 -0.022071
						CHANNELS 3 Xrotation Yrotation Zrotation
						JOINT mixamorig:LeftForeArm
						{
							OFFSET 24.198503 -0.424179 0.257802
							CHANNELS 3 Xrotation Yrotation Zrotation
							JOINT mixamorig:LeftHand
							{
								OFFSET 21.584717 -0.002335 0.669575
								CHANNELS 3 Xrotation Yrotation Zrotation
								JOINT mixamorig:LeftHandThumb1
								{
									OFFSET 2.193897 -1.259628 1.956942
									CHANNELS 3 Xrotation Yrotation Zrotation
									JOINT mixamorig:LeftHandThumb2
									{
										OFFSET 1.755203 -1.007660 1.565605
										CHANNELS 3 Xrotation Yrotation Zrotation
										JOINT mixamorig:LeftHandThumb3
										{
											OFFSET 2.535126 -0.998764 1.490660
											CHANNELS 3 Xrotation Yrotation Zrotation
											JOINT mixamorig:LeftHandThumb4
											{
												OFFSET 2.398251 -0.721657 1.023775
												CHANNELS 3 Xrotation Yrotation Zrotation
												End Site
												{
													OFFSET 2.205696 -0.773872 1.362551
												}
											}
										}
									}
								}
								JOINT mixamorig:LeftHandIndex1
								{
									OFFSET 7.166248 -0.069405 2.369028
									CHANNELS 3 Xrotation Yrotation Zrotation
									JOINT mixamorig:LeftHandIndex2
									{
										OFFSET 2.989986 -0.015724 0.245918
										CHANNELS 3 Xrotation Yrotation Zrotation
										JOINT mixamorig:LeftHandIndex3
										{
											OFFSET 2.739197 -0.058952 0.219132
											CHANNELS 3 Xrotation Yrotation Zrotation
											JOINT mixamorig:LeftHandIndex4
											{
												OFFSET 2.326500 -0.032570 0.188458
												CHANNELS 3 Xrotation Yrotation Zrotation
												End Site
												{
													OFFSET 2.326485 -0.032578 0.188548
												}
											}
										}
									}
								}
								JOINT mixamorig:LeftHandMiddle1
								{
									OFFSET 7.394897 0.286369 0.654762
									CHANNELS 3 Xrotation Yrotation Zrotation
									JOINT mixamorig:LeftHandMiddle2
									{
										OFFSET 3.376106 0.152466 -0.003692
										CHANNELS 3 Xrotation Yrotation Zrotation
										JOINT mixamorig:LeftHandMiddle3
										{
											OFFSET 3.185104 -0.185410 -0.047914
											CHANNELS 3 Xrotation Yrotation Zrotation
											JOINT mixamorig:LeftHandMiddle4
											{
												OFFSET 2.742905 0.223846 0.010354
												CHANNELS 3 Xrotation Yrotation Zrotation
												End Site
												{
													OFFSET 2.742889 0.224251 0.006757
												}
											}
										}
									}
								}
								JOINT mixamorig:LeftHandRing1
								{
									OFFSET 7.508747 0.282753 -1.072900
									CHANNELS 3 Xrotation Yrotation Zrotation
									JOINT mixamorig:LeftHandRing2
									{
										OFFSET 2.821857 0.317802 -0.177266
										CHANNELS 3 Xrotation Yrotation Zrotation
										JOINT mixamorig:LeftHandRing3
										{
											OFFSET 2.672325 0.088310 -0.196165
											CHANNELS 3 Xrotation Yrotation Zrotation
											JOINT mixamorig:LeftHandRing4
											{
												OFFSET 2.272652 -0.053627 -0.183955
												CHANNELS 3 Xrotation Yrotation Zrotation
												End Site
												{
													OFFSET 2.272919 -0.054016 -0.180438
												}
											}
										}
									}
								}
								JOINT mixamorig:LeftHandPinky1
								{
									OFFSET 7.285820 0.522377 -2.660948
									CHANNELS 3 Xrotation Yrotation Zrotation
									JOINT mixamorig:LeftHandPinky2
									{
										OFFSET 2.466278 0.082008 -0.249570
										CHANNELS 3 Xrotation Yrotation Zrotation
										JOINT mixamorig:LeftHandPinky3
										{
											OFFSET 1.940475 0.021858 -0.202004
											CHANNELS 3 Xrotation Yrotation Zrotation
											JOINT mixamorig:LeftHandPinky4
											{
												OFFSET 1.645287 0.153595 -0.153405
												CHANNELS 3 Xrotation Yrotation Zrotation
												End Site
												{
													OFFSET 1.645088 0.153801 -0.155289
												}
											}
										}
									}
								}
							}
						}
					}
				}
				JOINT mixamorig:RightShoulder
				{
					OFFSET -3.414604 7.343132 -0.036860
					CHANNELS 3 Xrotation Yrotation Zrotation
					JOINT mixamorig:RightArm
					{
						OFFSET -6.829551 -2.246986 0.022068
						CHANNELS 3 Xrotation Yrotation Zrotation
						JOINT mixamorig:RightForeArm
						{
							OFFSET -24.198494 -0.424141 0.158696
							CHANNELS 3 Xrotation Yrotation Zrotation
							JOINT mixamorig:RightHand
							{
								OFFSET -21.584698 -0.002243 0.686977
								CHANNELS 3 Xrotation Yrotation Zrotation
								JOINT mixamorig:RightHandThumb1
								{
									OFFSET -2.242882 -1.296806 1.978855
									CHANNELS 3 Xrotation Yrotation Zrotation
									JOINT mixamorig:RightHandThumb2
									{
										OFFSET -1.794239 -1.037361 1.583064
										CHANNELS 3 Xrotation Yrotation Zrotation
										JOINT mixamorig:RightHandThumb3
										{
											OFFSET -2.504150 -0.962166 1.471556
											CHANNELS 3 Xrotation Yrotation Zrotation
											JOINT mixamorig:RightHandThumb4
											{
												OFFSET -2.346046 -0.743172 0.992235
												CHANNELS 3 Xrotation Yrotation Zrotation
												End Site
												{
													OFFSET -2.157112 -0.792709 1.326359
												}
											}
										}
									}
								}
								JOINT mixamorig:RightHandIndex1
								{
									OFFSET -7.174488 -0.001839 2.366265
									CHANNELS 3 Xrotation Yrotation Zrotation
									JOINT mixamorig:RightHandIndex2
									{
										OFFSET -2.935219 -0.016853 0.287245
										CHANNELS 3 Xrotation Yrotation Zrotation
										JOINT mixamorig:RightHandIndex3
										{
											OFFSET -2.786827 -0.129890 0.255971
											CHANNELS 3 Xrotation Yrotation Zrotation
											JOINT mixamorig:RightHandIndex4
											{
												OFFSET -2.343559 0.168816 0.256164
												CHANNELS 3 Xrotation Yrotation Zrotation
												End Site
												{
													OFFSET -2.344208 0.169510 0.249690
												}
											}
										}
									}
								}
								JOINT mixamorig:RightHandMiddle1
								{
									OFFSET -7.274693 0.327965 0.656181
									CHANNELS 3 Xrotation Yrotation Zrotation
									JOINT mixamorig:RightHandMiddle2
									{
										OFFSET -3.309677 0.091591 0.032863
										CHANNELS 3 Xrotation Yrotation Zrotation
										JOINT mixamorig:RightHandMiddle3
										{
											OFFSET -3.186844 -0.122513 0.000971
											CHANNELS 3 Xrotation Yrotation Zrotation
											JOINT mixamorig:RightHandMiddle4
											{
												OFFSET -2.671951 -0.322540 -0.031001
												CHANNELS 3 Xrotation Yrotation Zrotation
												End Site
												{
													OFFSET -2.671928 -0.323486 -0.021820
												}
											}
										}
									}
								}
								JOINT mixamorig:RightHandRing1
								{
									OFFSET -7.453640 0.430428 -1.170334
									CHANNELS 3 Xrotation Yrotation Zrotation
									JOINT mixamorig:RightHandRing2
									{
										OFFSET -2.808174 0.165817 -0.117934
										CHANNELS 3 Xrotation Yrotation Zrotation
										JOINT mixamorig:RightHandRing3
										{
											OFFSET -2.730080 0.127754 -0.119542
											CHANNELS 3 Xrotation Yrotation Zrotation
											JOINT mixamorig:RightHandRing4
											{
												OFFSET -2.349426 0.078133 -0.107466
												CHANNELS 3 Xrotation Yrotation Zrotation
												End Site
												{
													OFFSET -2.349503 0.077988 -0.106043
												}
											}
										}
									}
								}
								JOINT mixamorig:RightHandPinky1
								{
									OFFSET -7.364456 0.463486 -2.604800
									CHANNELS 3 Xrotation Yrotation Zrotation
									JOINT mixamorig:RightHandPinky2
									{
										OFFSET -2.430134 0.174614 -0.251330
										CHANNELS 3 Xrotation Yrotation Zrotation
										JOINT mixamorig:RightHandPinky3
										{
											OFFSET -1.953583 0.007492 -0.220999
											CHANNELS 3 Xrotation Yrotation Zrotation
											JOINT mixamorig:RightHandPinky4
											{
												OFFSET -1.582039 0.276558 -0.139972
												CHANNELS 3 Xrotation Yrotation Zrotation
												End Site
												{
													OFFSET -1.581284 0.277252 -0.147002
												}
											}
										}
									}
								}
							}
						}
					}
				}
			}
		}
	}
	JOINT mixamorig:LeftUpLeg
	{
		OFFSET 6.620181 -8.816864 -0.447179
		CHANNELS 3 Xrotation Yrotation Zrotation
		JOINT mixamorig:LeftLeg
		{
			OFFSET 2.748989 -36.076775 0.650871
			CHANNELS 3 Xrotation Yrotation Zrotation
			JOINT mixamorig:LeftFoot
			{
				OFFSET 1.089303 -46.239017 1.019056
				CHANNELS 3 Xrotation Yrotation Zrotation
				JOINT mixamorig:LeftToeBase
				{
					OFFSET -0.371088 -10.380511 12.650617
					CHANNELS 3 Xrotation Yrotation Zrotation
					JOINT mixamorig:LeftToe_End
					{
						OFFSET -0.094684 -0.116785 6.663326
						CHANNELS 3 Xrotation Yrotation Zrotation
						End Site
						{
							OFFSET -0.094684 -0.116785 6.663326
						}
					}
				}
			}
		}
	}
	JOINT mixamorig:RightUpLeg
	{
		OFFSET -6.620174 -8.816818 -0.447182
		CHANNELS 3 Xrotation Yrotation Zrotation
		JOINT mixamorig:RightLeg
		{
			OFFSET -2.748991 -36.076790 0.753614
			CHANNELS 3 Xrotation Yrotation Zrotation
			JOINT mixamorig:RightFoot
			{
				OFFSET -1.089311 -46.239029 0.372114
				CHANNELS 3 Xrotation Yrotation Zrotation
				JOINT mixamorig:RightToeBase
				{
					OFFSET 0.371103 -10.380659 13.284531
					CHANNELS 3 Xrotation Yrotation Zrotation
					JOINT mixamorig:RightToe_End
					{
						OFFSET 0.094689 -0.116865 6.675873
						CHANNELS 3 Xrotation Yrotation Zrotation
						End Site
						{
							OFFSET 0.094687 -0.116865 6.675871
						}
					}
				}
			}
		}
	}
}
MOTION
Frames: 4
Frame Time: 0.016667
9.100175 96.928581 7.085787 2.380810 8.411577 -4.778886 1.402759 2.707133 -2.965209 3.352738 5.423161 -5.491569 3.387150 5.383846 -5.506851 -2.761810 -3.140008 -7.284381 8.305265 -27.223245 12.554097 0.000000 -0.000001 0.000000 1.079899 -2.880399 -4.771716 -14.923340 -25.109310 -40.585459 -177.836365 -65.515031 -177.610559 -8.429581 3.810680 14.614358 4.905773 12.004138 -5.887762 2.264128 -1.730271 -4.146490 0.729343 7.565369 -2.932691 -0.000002 -0.000000 -0.000001 8.316555 8.111318 -55.449190 13.177808 9.212463 -70.415084 7.640922 8.024579 -46.933587 -0.000002 -0.000004 -0.000002 5.711087 6.208569 -65.755665 5.940148 11.454810 -57.883271 3.312380 8.754375 -45.779292 0.000002 -0.000001 0.000002 5.015615 6.133757 -74.770129 1.232384 12.106455 -52.679480 -0.048948 8.803119 -37.564541 -0.000002 0.000001 0.000001 6.440487 6.631653 -68.056613 1.754466 10.737562 -63.456801 -0.763301 10.785208 -45.875980 -0.000002 0.000001 -0.000002 0.154158 0.334767 -13.977875 -54.306421 31.739971 45.822964 -5.722874 80.207431 5.804844 20.937501 -14.457485 -22.040291 -2.067542 -17.374031 2.496284 3.431357 0.609158 5.067699 -2.028102 6.056359 0.769678 0.000001 -0.000001 0.000001 3.488646 -4.065383 49.690439 5.624757 -6.242641 35.305313 6.733086 -6.421937 42.008197 0.000003 0.000004 0.000003 1.622048 -1.767002 44.828359 3.795559 -8.592917 44.299900 2.535379 -6.945764 33.862848 0.000000 -0.000002 -0.000001 1.814828 -1.930021 47.095561 0.142847 -6.695742 31.211441 0.213544 -6.834382 31.883299 0.000002 0.000001 0.000001 3.228211 -3.568906 53.963993 -1.700455 -6.645256 28.370191 -1.773512 -8.689458 40.214832 -0.000000 0.000001 0.000005 -31.332342 -2.364677 3.467515 40.378142 -7.475085 10.038671 -13.686360 -16.200256 -8.476175 -1.111507 -0.000009 0.000001 0.000000 0.000002 -0.000000 -3.203210 -15.545674 1.087212 42.434548 -12.351237 -3.769295 0.879050 -10.224680 12.501726 -26.307051 -1.560124 8.194847 -0.000000 -0.000002 0.000000 
9.390696 96.406113 7.268536 2.374778 8.231432 -4.957552 1.833471 2.711462 -3.260217 4.067419 5.380877 -5.840378 4.108654 5.338304 -5.847306 -2.480319 -3.193476 -7.330110 6.776563 -27.630361 13.025046 -0.000000 -0.000000 0.000001 1.199770 -3.738035 -5.069438 -11.186978 -20.126365 -40.800576 -178.260465 -60.489467 -177.987203 -9.695510 0.120203 15.845325 4.914587 11.974660 -6.062145 2.252906 -1.830644 -4.135652 0.954555 8.670571 -3.069188 -0.000006 -0.000003 -0.000000 9.321129 8.639668 -57.329787 13.966723 9.182583 -73.699667 7.967353 8.157499 -48.397003 -0.000001 -0.000001 -0.000001 6.425563 6.611976 -67.666800 6.086221 11.544943 -58.658300 3.493040 8.948118 -46.967256 0.000000 -0.000004 0.000000 5.289231 6.320514 -76.010798 1.383748 12.333802 -53.874698 0.000969 8.948034 -38.233531 -0.000003 0.000002 -0.000001 6.631113 6.743743 -69.063847 1.821237 10.820599 -63.894227 -0.675923 11.027996 -46.913742 -0.000001 -0.000001 -0.000002 0.620014 1.971567 -11.695505 -49.389248 26.850751 42.737832 12.202684 94.657809 -12.248444 23.660525 -15.177917 -21.491469 -2.233578 -17.219185 2.221112 3.431352 0.609158 5.067699 -2.015583 5.986870 0.765122 -0.000002 -0.000003 -0.000001 2.691899 -3.372914 49.893162 5.371378 -6.095922 34.065886 6.665051 -6.390604 41.685935 0.000004 0.000004 -0.000000 1.200156 -1.306962 44.820651 3.419005 -8.224752 41.792893 2.520679 -6.926800 33.748938 0.000004 -0.000001 0.000000 1.752245 -1.839863 46.726632 -0.045313 -6.007096 27.888783 0.163331 -6.674961 31.103855 -0.000002 -0.000000 0.000001 3.357634 -3.668534 53.818725 -1.657079 -5.698387 24.344355 -1.791838 -8.571607 39.714917 -0.000003 0.000004 0.000001 -32.467970 -3.208079 3.260090 42.869413 -7.360363 9.866370 -14.757121 -15.206352 -8.132118 -1.168868 -0.000000 -0.000003 0.000000 -0.000002 -0.000000 -4.267766 -15.081821 0.429371 44.575730 -12.583080 -4.028690 0.806087 -6.742446 11.483980 -26.763577 -1.587927 8.247690 0.000000 0.000001 -0.000000 
9.728177 95.837280 7.420574 2.274922 7.335977 -5.134787 2.283194 2.810944 -3.537531 4.811322 5.525093 -6.197394 4.859585 5.480495 -6.195432 -2.276120 -3.278228 -7.269211 5.083860 -28.063639 13.598420 -0.000000 0.000001 0.000001 1.342914 -4.740186 -5.570728 -7.160594 -14.522954 -41.431668 -178.491708 -56.880559 -178.183707 -11.125168 -2.789713 16.874462 4.949039 11.977678 -6.242566 2.257196 -1.792221 -4.139808 1.145104 9.573503 -3.181397 0.000003 0.000004 0.000003 10.125304 9.001885 -58.941199 14.706058 9.113776 -76.788545 8.356894 8.303625 -50.125204 -0.000003 0.000002 0.000000 7.088214 6.940740 -69.133720 6.279461 11.660033 -59.674181 3.695763 9.156159 -48.270518 -0.000001 -0.000001 -0.000001 5.621103 6.542040 -77.612314 1.569507 12.599141 -55.293038 0.052170 9.091087 -38.896971 -0.000000 -0.000000 0.000001 6.837749 6.857711 -70.068356 1.927787 10.950337 -64.583660 -0.603013 11.220524 -47.742281 -0.000001 -0.000002 -0.000001 0.883953 2.993320 -9.575453 -45.975205 22.321876 41.540080 3.281539 106.737572 -3.436762 26.055683 -15.170948 -20.194274 -2.371480 -17.098591 1.955816 3.431353 0.609164 5.067701 -2.011931 5.966584 0.763791 0.000002 -0.000001 -0.000001 1.981658 -2.761818 50.108013 5.083913 -5.920414 32.640952 6.589325 -6.355182 41.326227 0.000002 0.000001 -0.000000 0.793125 -0.865720 44.863568 3.024078 -7.800993 39.038281 2.498700 -6.898313 33.578156 0.000005 0.000000 0.000000 1.750626 -1.817657 46.417354 -0.197443 -5.283212 24.451642 0.117372 -6.521853 30.358787 -0.000000 -0.000003 -0.000001 3.530015 -3.804850 53.686410 -1.557550 -4.826195 20.620840 -1.806804 -8.469920 39.284253 0.000005 0.000000 0.000001 -33.504373 -3.778044 3.225631 45.475259 -7.231152 9.697218 -15.919107 -13.808415 -7.762717 -1.195163 0.000003 0.000004 0.000000 -0.000002 -0.000000 -5.371759 -14.713182 -0.449588 46.524896 -12.772969 -4.297975 0.757257 -3.459577 10.734269 -27.463368 -1.630866 8.344100 0.000000 -0.000001 0.000001 
10.104904 95.224739 7.548665 2.123791 5.868228 -5.314390 2.720790 2.965265 -3.815795 5.533567 5.776495 -6.573237 5.590251 5.730322 -6.561440 -2.136749 -3.397515 -7.081948 3.267278 -28.518333 14.192741 -0.000000 -0.000001 -0.000001 1.489836 -5.808048 -6.140784 -3.025159 -8.316882 -42.699112 -178.582003 -55.251405 -178.258116 -12.193852 -5.081516 17.397467 4.978688 11.984900 -6.377966 2.268850 -1.688090 -4.151036 1.297554 10.276336 -3.269279 0.000002 0.000003 0.000001 10.728034 9.221230 -60.385504 15.332052 9.024221 -79.418530 8.781086 8.447788 -51.987008 0.000000 0.000001 0.000000 7.666225 7.199890 -70.296573 6.526813 11.800689 -60.959712 3.900287 9.356662 -49.556287 0.000000 -0.000000 -0.000001 6.013295 6.792273 -79.568193 1.774224 12.875776 -56.801390 0.099511 9.218840 -39.492072 -0.000002 -0.000001 0.000001 7.059515 6.973906 -71.116476 2.071189 11.119985 -65.496296 -0.548231 11.359627 -48.344379 0.000003 -0.000001 0.000000 0.973863 3.376047 -7.580098 -43.433422 18.568750 41.646604 1.956902 116.729709 -2.204663 27.586000 -14.687577 -18.805060 -2.424436 -17.055614 1.839992 3.431355 0.609165 5.067698 -2.019924 6.010984 0.766707 0.000003 -0.000001 0.000001 1.436580 -2.299346 50.310395 4.762530 -5.712211 31.021876 6.502700 -6.313946 40.913574 0.000001 0.000004 -0.000001 0.450654 -0.498179 44.939390 2.646230 -7.353587 36.256799 2.470114 -6.861015 33.355184 -0.000003 0.000000 -0.000000 1.843226 -1.901153 46.167567 -0.302513 -4.577768 21.142641 0.078094 -6.384881 29.694784 -0.000004 -0.000000 -0.000002 3.739602 -3.973391 53.571199 -1.432005 -4.108193 17.531853 -1.818181 -8.388654 38.940449 0.000001 -0.000000 -0.000001 -34.477801 -4.095520 3.342368 48.141803 -7.094217 9.534391 -17.144480 -12.145731 -7.375418 -1.181632 -0.000001 0.000001 0.000000 -0.000002 -0.000000 -6.534723 -14.472906 -1.522042 48.272072 -12.920456 -4.519992 0.724020 -0.567722 10.209041 -28.595977 -1.708080 8.520419 0.000001 -0.000002 0.000001 
